<svg xmlns="http://www.w3.org/2000/svg" viewBox="0 0 139 21"><path fill="#29AAE2" d="M5.906 5.196H0V.883h17.221v4.313h-5.877v14.915H5.906zM19.254.883h5.438v19.228h-5.438zm13.404 4.313h-5.906V.883h17.219v4.313h-5.875v14.915h-5.438zm25.269 11.18h-8.13l-1.51 3.742h-5.548L51.222.883h5.356l8.516 19.228h-5.656l-1.51-3.735Zm-1.593-4.011-2.472-6.152-2.472 6.152h4.944ZM84.927.883v19.228h-4.469L71.972 9.864v10.247h-5.339V.883h4.469l8.495 10.258V.883zm3.846 0h5.437v19.228h-5.437zm11.535 19.037a11.18 11.18 0 0 1-3.572-1.528l1.787-4.011a12.141 12.141 0 0 0 6.343 1.897c2.088 0 3.132-.523 3.132-1.567 0-.55-.298-.958-.893-1.221a16.216 16.216 0 0 0-2.87-.838 27.28 27.28 0 0 1-3.625-1.003 6.112 6.112 0 0 1-2.5-1.717c-.698-.797-1.046-1.862-1.046-3.197a5.524 5.524 0 0 1 .961-3.174c.641-.935 1.598-1.682 2.87-2.238 1.272-.557 2.832-.831 4.678-.824 1.26 0 2.515.143 3.742.426 1.137.249 2.23.67 3.24 1.25l-1.675 4.038c-1.83-.988-3.607-1.483-5.328-1.485-1.08 0-1.868.16-2.363.482a1.436 1.436 0 0 0-.746 1.254c0 .514.293.899.88 1.153.915.354 1.862.62 2.827.797 1.236.247 2.452.583 3.64 1.004.96.355 1.818.94 2.5 1.702.703.78 1.056 1.837 1.057 3.172a5.41 5.41 0 0 1-.961 3.132c-.64.935-1.602 1.681-2.884 2.238-1.282.557-2.84.836-4.678.837a17.81 17.81 0 0 1-4.516-.58Zm32.903.191-.053-10.19-4.945 8.295h-2.416l-4.912-8.022v9.917h-5.028V.883h4.479l6.757 11.098L133.684.883h4.476l.057 19.228z"/></svg>